<svg width="114" height="41" viewBox="0 0 114 41" fill="none" xmlns="http://www.w3.org/2000/svg">
<path d="M21.5199 29.1024H8.86456L6.45888 34.9346H0L12.1305 7.69843H18.3561L30.5303 34.9346H23.911L21.5199 29.1024ZM19.5225 24.32L15.2068 13.8951L10.8912 24.32H19.5225Z" fill="#181818"/>
<path d="M32.4548 6.06543H38.52V34.9346H32.4548V6.06543Z" fill="#181818"/>
<path d="M35.502 34.9346H41.5672V41H35.502V34.9346V34.9346Z" fill="#181818"/>
<path d="M67.461 0H73.5263V6.06543H67.461V0Z" fill="#181818"/>
<path d="M107.92 29.1753H113.985V35.2408H107.92V29.1753Z" fill="#181818"/>
<path d="M62.3435 26.4779L46.5098 26.0405C46.7576 27.3382 47.3991 28.388 48.4489 29.1753C49.4841 29.9627 50.7963 30.3709 52.3855 30.4146C53.479 30.4438 54.4412 30.3126 55.3014 30.0064C56.1471 29.7002 56.949 29.2191 57.6925 28.5338L60.8272 32.1205C58.8006 34.3222 55.8846 35.372 52.1084 35.2699C49.7465 35.2116 47.6762 34.6867 45.8828 33.7244C44.0895 32.7621 42.7336 31.4353 41.7859 29.7731C40.8382 28.1109 40.4008 26.2447 40.4591 24.1742C40.5174 22.133 41.0569 20.2959 42.0629 18.6774C43.0835 17.059 44.454 15.8051 46.1744 14.9303C47.8949 14.0555 49.8048 13.6472 51.9043 13.7055C53.9455 13.7639 55.7972 14.2596 57.4301 15.1782C59.063 16.1113 60.3315 17.409 61.2354 19.0711C62.1394 20.7479 62.5622 22.6725 62.5039 24.8449C62.5039 24.9324 62.4456 25.4719 62.3435 26.4779ZM48.3323 19.3627C47.3846 20.1209 46.7722 21.1561 46.5389 22.5121L56.8469 22.7891C56.6719 21.4623 56.1325 20.3833 55.2285 19.5668C54.31 18.7503 53.1874 18.3275 51.846 18.2838C50.4463 18.2546 49.2945 18.6045 48.3323 19.3627Z" fill="#181818"/>
<path d="M73.4242 26.7258L70.5082 29.5981V34.9346H64.443V6.06543H70.5082V22.41L79.3728 14.0117H86.6044L77.8857 22.8766L87.3772 34.9346H80.0289L73.4242 26.7258Z" fill="#181818"/>
<path d="M91.3574 34.5992C89.6953 34.1764 88.3686 33.6369 87.3917 32.9808L89.4183 28.6213C90.3514 29.2191 91.4741 29.7002 92.8009 30.0793C94.1276 30.4584 95.4252 30.6479 96.6937 30.6479C99.2597 30.6479 100.543 30.0064 100.543 28.7379C100.543 28.1401 100.193 27.7173 99.493 27.4548C98.7932 27.1924 97.7143 26.9737 96.2709 26.7987C94.565 26.5363 93.1508 26.2447 92.0281 25.9093C90.9055 25.574 89.9432 24.9762 89.1267 24.1159C88.3103 23.2557 87.902 22.0455 87.902 20.4563C87.902 19.1295 88.2811 17.963 89.0538 16.9424C89.812 15.9218 90.9346 15.1199 92.3926 14.5512C93.8506 13.9826 95.5856 13.691 97.583 13.691C99.0556 13.691 100.528 13.8514 102.001 14.1721C103.459 14.4929 104.683 14.9449 105.631 15.5135L103.605 19.8293C101.767 18.7941 99.7555 18.2692 97.5685 18.2692C96.2709 18.2692 95.294 18.4442 94.6525 18.8087C94.011 19.1732 93.6756 19.6398 93.6756 20.2084C93.6756 20.8499 94.0256 21.3165 94.7254 21.5644C95.4252 21.8268 96.5333 22.0747 98.0642 22.308C99.77 22.5996 101.17 22.8912 102.263 23.2265C103.357 23.5473 104.304 24.1451 105.106 24.9908C105.908 25.851 106.316 27.0466 106.316 28.563C106.316 29.8606 105.923 31.0125 105.15 32.0185C104.377 33.0245 103.24 33.8119 101.753 34.3659C100.266 34.92 98.487 35.197 96.4458 35.197C94.7108 35.2408 93.005 35.0366 91.3574 34.5992Z" fill="#181818"/>
</svg>
